<?xml version="1.0" encoding="utf-8"?>
<!-- Generator: Adobe Illustrator 27.5.0, SVG Export Plug-In . SVG Version: 6.00 Build 0)  -->
<svg version="1.1" xmlns="http://www.w3.org/2000/svg" xmlns:xlink="http://www.w3.org/1999/xlink" x="0px" y="0px"
	 viewBox="0 0 500 500" style="enable-background:new 0 0 500 500;" xml:space="preserve">
<g id="Background_Simple">
	<g>
		<path style="fill:#92E3A9;" d="M455.589,331.575c-20.142,40.614-55.863,82.72-99.325,90.812
			c-65.67,12.234-80.585,66.854-192.613,46.705c-17.467-3.14-33.35-8.009-47.697-14.319c-7.713-3.391-14.982-7.211-21.804-11.406
			c-61.958-38-87.748-106.931-81.644-174.654c8.016-89.073,69.992-123.794,109.91-143.643
			c39.918-19.848,96.805-109.761,207.1-90.903c16.814,2.883,33.339,7.658,49.031,14.687c35.824,16.028,70.482,45.55,87.754,84.267
			c1.296,2.909,2.508,5.87,3.647,8.874C492.137,200.766,483.052,276.206,455.589,331.575z"/>
		<path style="opacity:0.8;fill:#FFFFFF;" d="M455.589,331.575c-20.142,40.614-55.863,82.72-99.325,90.812
			c-65.67,12.234-80.585,66.854-192.613,46.705c-17.467-3.14-33.35-8.009-47.697-14.319c-7.713-3.391-14.982-7.211-21.804-11.406
			c-61.958-38-87.748-106.931-81.644-174.654c8.016-89.073,69.992-123.794,109.91-143.643
			c39.918-19.848,96.805-109.761,207.1-90.903c16.814,2.883,33.339,7.658,49.031,14.687c35.824,16.028,70.482,45.55,87.754,84.267
			c1.296,2.909,2.508,5.87,3.647,8.874C492.137,200.766,483.052,276.206,455.589,331.575z"/>
	</g>
</g>
<g id="Circles">
	<g>
		<circle style="fill:none;stroke:#263238;stroke-miterlimit:10;" cx="444.136" cy="170.25" r="16.564"/>
		
			<ellipse transform="matrix(0.2314 -0.9729 0.9729 0.2314 -154.947 732.0229)" style="fill:none;stroke:#263238;stroke-miterlimit:10;" cx="385.804" cy="464.073" rx="16.564" ry="16.564"/>
		
			<ellipse transform="matrix(0.6772 -0.7358 0.7358 0.6772 -286.635 217.2078)" style="fill:none;stroke:#263238;stroke-miterlimit:10;" cx="104.223" cy="435.267" rx="16.564" ry="16.564"/>
		
			<ellipse transform="matrix(0.7274 -0.6862 0.6862 0.7274 39.2349 189.3732)" style="fill:none;stroke:#263238;stroke-miterlimit:10;" cx="257.976" cy="45.303" rx="9.002" ry="9.002"/>
		
			<ellipse transform="matrix(0.7071 -0.7071 0.7071 0.7071 -96.705 82.5477)" style="fill:none;stroke:#263238;stroke-miterlimit:10;" cx="51.291" cy="158.007" rx="9.002" ry="9.002"/>
		
			<ellipse transform="matrix(0.2306 -0.973 0.973 0.2306 -103.9905 469.6746)" style="fill:none;stroke:#263238;stroke-miterlimit:10;" cx="245.013" cy="300.598" rx="9.002" ry="9.002"/>
		
			<ellipse transform="matrix(0.7071 -0.7071 0.7071 0.7071 -11.7452 65.8508)" style="fill:none;stroke:#263238;stroke-miterlimit:10;" cx="73.616" cy="47.103" rx="9.002" ry="9.002"/>
		<path style="fill:none;stroke:#263238;stroke-miterlimit:10;" d="M455.06,253.068c0,3.647-2.956,6.603-6.603,6.603
			c-3.647,0-6.603-2.956-6.603-6.603c0-3.647,2.957-6.603,6.603-6.603C452.104,246.464,455.06,249.421,455.06,253.068z"/>
		<path style="fill:none;stroke:#263238;stroke-miterlimit:10;" d="M457.819,438.148c0,3.647-2.956,6.603-6.603,6.603
			c-3.647,0-6.603-2.956-6.603-6.603c0-3.647,2.956-6.603,6.603-6.603C454.863,431.544,457.819,434.501,457.819,438.148z"/>
	</g>
</g>
<g id="Leaves">
	<g>
		<g>
			<path style="fill:none;stroke:#263238;stroke-miterlimit:10;" d="M337.487,47.442c-4.253,0.488-8.512,0.833-12.792,0.833
				c-11.819,0-31.518,0-31.518,0s23.639,20.356,32.175,28.235c8.536,7.88,38.085,27.579,56.47,36.115
				c18.386,8.536,23.639,9.85,36.771,15.103c13.133,5.253,17.433,9.984,17.433,9.984l4.236-14.58c0,0,5.253-17.729-3.283-40.055
				c-1.348-3.524-2.987-6.776-4.879-9.768"/>
			<path style="fill:none;stroke:#263238;stroke-miterlimit:10;" d="M429.158,69.116c-14.179-18.262-38.713-25.276-62.036-24.877
				c-7.875,0.135-15.665,1.353-23.454,2.416"/>
			<path style="fill:none;stroke:#263238;stroke-miterlimit:10;" d="M315.963,53.621c0,0,17.141,9.118,47.777,14.588
				c20.036,3.578,39.499,12.19,54.237,26.443c10.191,9.856,14.445,23.64,16.517,37.381"/>
			<path style="fill:none;stroke:#263238;stroke-miterlimit:10;" d="M349.87,49.913c0,0,8.4,8.449,13.87,18.296"/>
			<path style="fill:none;stroke:#263238;stroke-miterlimit:10;" d="M375.046,50.703c0,0,9.483,13.13,12.765,24.071
				c0,0-6.2,12.035-22.612,17.141"/>
			<path style="fill:none;stroke:#263238;stroke-miterlimit:10;" d="M407.505,58.727c0,0,4.741,16.412,5.106,29.542"/>
			<path style="fill:none;stroke:#263238;stroke-miterlimit:10;" d="M362.281,70.762c0,0-12.4,5.471-25.53,5.471"/>
			<path style="fill:none;stroke:#263238;stroke-miterlimit:10;" d="M410.423,90.821c0,0-10.577,7.294-23.341,11.671"/>
			<path style="fill:none;stroke:#263238;stroke-miterlimit:10;" d="M403.494,115.622c0,0,15.318,0.365,24.8-6.2
				c0,0,2.188-13.494,2.553-25.895"/>
		</g>
		<g>
			<path style="fill:none;stroke:#263238;stroke-miterlimit:10;" d="M39.336,200.578c3.575-4.309,7.679-8.239,12.057-11.693
				c8.749-6.903,19.084-11.519,27.68-18.542c7.155-5.846,19.08-15.59,19.08-15.59s-4.241,24.015-5.511,33.007
				c-1.27,8.992-9.414,35.533-16.321,49.794c-6.908,14.262-9.438,17.655-14.79,27.331c-5.352,9.676-5.615,14.667-5.615,14.667
				l-9.776-6.731c0,0-11.949-8.134-17.825-25.871c-4.718-14.242-1.378-27.944,6.058-39.592"/>
			<path style="fill:none;stroke:#263238;stroke-miterlimit:10;" d="M87.004,169.26c0,0-5.867,13.998-21.707,32.463
				C54.938,213.8,47.416,228.64,45.544,244.558c-1.294,11.007,2.949,21.455,8.491,30.799"/>
			<path style="fill:none;stroke:#263238;stroke-miterlimit:10;" d="M64.644,183.787c0,0-0.906,9.269,0.653,17.936"/>
			<path style="fill:none;stroke:#263238;stroke-miterlimit:10;" d="M49.794,196.718c0,0,0.754,12.638,4.179,20.885
				c0,0,9.706,4.219,22.167-0.808"/>
			<path style="fill:none;stroke:#263238;stroke-miterlimit:10;" d="M34.113,217.63c0,0,5.248,12.28,11.521,20.409"/>
			<path style="fill:none;stroke:#263238;stroke-miterlimit:10;" d="M67.443,202.547c0,0,10.213-2.822,18.161-9.316"/>
			<path style="fill:none;stroke:#263238;stroke-miterlimit:10;" d="M63.207,235.628c1.611-0.462,3.266-0.995,4.918-1.607"/>
			<path style="fill:none;stroke:#263238;stroke-miterlimit:10;" d="M48.222,238.502c0,0,4.318-0.352,10.084-1.632"/>
			<path style="fill:none;stroke:#263238;stroke-miterlimit:10;" d="M64.684,250.088c0,0-9.092,7.797-18.08,8.514
				c0,0-7.999-7.087-14.354-14.413"/>
		</g>
		<g>
			<g>
				<path style="fill:none;stroke:#263238;stroke-miterlimit:10;" d="M211.214,425.141c-1.528,2.948-2.828,6.024-3.897,9.143
					c-2.955,8.622-3.716,17.848-6.805,26.384c-2.572,7.105-6.858,18.948-6.858,18.948s17.381-9.781,23.975-13.198
					c5.253-2.722,17.916-11.828,27.467-20.068"/>
				<path style="fill:none;stroke:#263238;stroke-miterlimit:10;" d="M248.895,442.958c0.977-0.906,1.892-1.786,2.731-2.631
					c9.132-9.195,11.065-12.067,17.08-18.819s9.795-8.308,9.795-8.308l-7.844-5.719c0,0-9.515-7.016-24.794-6.742
					c-13.443,0.241-23.763,7.771-30.836,18.028"/>
				<path style="fill:none;stroke:#263238;stroke-miterlimit:10;" d="M236.44,422.761c3.73-3.175,7.823-5.914,12.249-8.079
					c8.143-3.982,17.354-3.54,26.066-1.795"/>
				<path style="fill:none;stroke:#263238;stroke-miterlimit:10;" d="M201.825,467.08c0,0,9.211-8.321,19.166-25.547
					c3.192-5.524,7.082-10.701,11.605-15.223"/>
				<path style="fill:none;stroke:#263238;stroke-miterlimit:10;" d="M206.974,445.89c0,0,6.907-3.211,14.017-4.357"/>
				<path style="fill:none;stroke:#263238;stroke-miterlimit:10;" d="M212.927,430.927c0,0,9.956-2.844,17.248-2.436
					c0,0,5.886,6.346,5.385,17.323"/>
				<path style="fill:none;stroke:#263238;stroke-miterlimit:10;" d="M224.813,413.16c0,0,10.898,0.721,18.87,3.358"/>
				<path style="fill:none;stroke:#263238;stroke-miterlimit:10;" d="M222.208,442.965c0,0,0.59,8.645-2.266,16.538"/>
				<path style="fill:none;stroke:#263238;stroke-miterlimit:10;" d="M244.742,418.389c0,0,2.084,7.945,1.937,16.572"/>
				<path style="fill:none;stroke:#263238;stroke-miterlimit:10;" d="M258.143,427.951c0,0,3.552-9.129,1.669-16.258
					c0,0-7.636-4.252-15.011-7.169"/>
			</g>
			<g>
				<path style="fill:none;stroke:#263238;stroke-miterlimit:10;" d="M227.079,390.121c0.403,0.123,0.8,0.242,1.192,0.357
					c18.351,5.376,23.435,5.863,36.424,8.916c12.989,3.053,17.666,6.861,17.666,6.861l1.9-14.196c0,0,2.406-17.276-8.696-36.901
					c-2.742-4.847-6.056-8.97-9.809-12.438"/>
				<path style="fill:none;stroke:#263238;stroke-miterlimit:10;" d="M261.371,339.101c-15.58-11.455-36.886-13.636-56.43-10.347
					c-13.262,2.232-25.763,7.736-39.008,9.733c-11.025,1.662-29.4,4.433-29.4,4.433s24.913,15.663,33.984,21.812
					c8.139,5.518,33.395,17.532,51.755,23.826"/>
				<path style="fill:none;stroke:#263238;stroke-miterlimit:10;" d="M158.539,344.702c0,0,17.272,6.094,46.618,6.888
					c19.193,0.519,38.559,5.815,54.311,17.038c10.892,7.76,16.799,20.019,20.665,32.546"/>
				<path style="fill:none;stroke:#263238;stroke-miterlimit:10;" d="M189.646,336.474c0,0,9.024,6.7,15.511,15.116"/>
				<path style="fill:none;stroke:#263238;stroke-miterlimit:10;" d="M213.241,333.67c0,0,10.692,10.913,15.293,20.658
					c0,0-4.091,12.099-18.682,19.17"/>
				<path style="fill:none;stroke:#263238;stroke-miterlimit:10;" d="M244.647,336.589c0,0,6.731,14.642,8.918,26.838"/>
				<path style="fill:none;stroke:#263238;stroke-miterlimit:10;" d="M204.156,354.176c0,0-10.797,6.847-23.045,8.694"/>
				<path style="fill:none;stroke:#263238;stroke-miterlimit:10;" d="M251.883,366.116c0,0-8.84,8.292-20.131,14.169"/>
				<path style="fill:none;stroke:#263238;stroke-miterlimit:10;" d="M257.068,388.385c4.575-1.386,10.141-3.704,14.101-7.432
					c0,0,0.143-12.895-1.261-24.513"/>
				<path style="fill:none;stroke:#263238;stroke-miterlimit:10;" d="M248.908,390.224c0,0,1.994-0.252,4.905-0.955"/>
			</g>
		</g>
	</g>
</g>
<g id="Cup_1">
	<g>
		<path style="fill:#92E3A9;stroke:#263238;stroke-miterlimit:10;" d="M81.489,113.307l-1.672,258.26
			c-0.838,7.404,27.218,23.867,62.284,27.836c35.066,3.969,63.863-6.059,64.701-13.463l56.094-252.1L81.489,113.307z"/>
		<path style="fill:#263238;" d="M80.276,300.622c74.676-23.203,126.986-51.795,162.759-77.524l18.702-84.052
			c-7.473,9.179-21.645,24.328-45.159,41.584c-41.327,30.328-90.479,52-135.961,67.276L80.276,300.622z"/>
		<g>
			<path style="fill:#263238;" d="M228.484,288.495c-7.093,6.633-15.861,14.063-26.598,21.942
				c-37.115,27.237-80.534,47.474-121.945,62.386c2.049,7.864,28.953,22.822,62.16,26.58c1.443,0.163,2.87,0.294,4.29,0.411
				c25.531-11.677,47.096-23.751,65.223-35.499L228.484,288.495z"/>
			<path style="fill:#263238;" d="M88.508,114.102c-2.354,0.871-4.699,1.721-7.041,2.557l-0.343,53.056
				c41.768-13.767,76.152-29.18,104.287-44.645L88.508,114.102z"/>
		</g>
		<g>
			<g>
				<path style="fill:#DEDEDE;stroke:#263238;stroke-miterlimit:10;" d="M72.06,103.027l-0.879,7.762
					c-1.416,12.511,42.728,27.779,98.598,34.103c55.87,6.324,102.31,1.308,103.726-11.203l0.879-7.762L72.06,103.027z"/>
				
					<ellipse transform="matrix(0.1125 -0.9937 0.9937 0.1125 39.9888 273.7252)" style="fill:#FFFFFF;stroke:#263238;stroke-miterlimit:10;" cx="173.222" cy="114.477" rx="22.798" ry="101.808"/>
			</g>
			<g>
				<path style="fill:#DEDEDE;stroke:#263238;stroke-miterlimit:10;" d="M75.241,91.294l-0.863,7.621
					c-1.39,12.285,41.955,27.277,96.815,33.487c54.86,6.209,100.46,1.284,101.85-11l0.863-7.621L75.241,91.294z"/>
				
					<ellipse transform="matrix(0.1125 -0.9937 0.9937 0.1125 53.0532 264.4704)" style="fill:#FFFFFF;stroke:#263238;stroke-miterlimit:10;" cx="174.573" cy="102.537" rx="22.385" ry="99.967"/>
			</g>
			<path style="fill:#DEDEDE;stroke:#263238;stroke-miterlimit:10;" d="M89.065,62.111l-3.16,27.917
				c-1.197,10.578,37.654,23.66,86.777,29.22c49.123,5.56,89.916,1.493,91.113-9.085l3.16-27.917L89.065,62.111z"/>
			
				<ellipse transform="matrix(0.1125 -0.9937 0.9937 0.1125 86.2691 240.9405)" style="fill:#FFFFFF;stroke:#263238;stroke-miterlimit:10;" cx="178.01" cy="72.178" rx="19.275" ry="89.513"/>
			
				<ellipse transform="matrix(0.1125 -0.9937 0.9937 0.1125 86.2692 240.9405)" style="fill:#DEDEDE;stroke:#263238;stroke-miterlimit:10;" cx="178.01" cy="72.178" rx="16.059" ry="74.58"/>
			<path style="fill:#FFFFFF;stroke:#263238;stroke-miterlimit:10;" d="M179.221,61.476c-36.77-4.162-67.921-1.846-74.598,5.057
				c4.965,8.221,34.81,17.441,71.58,21.603c36.77,4.162,67.921,1.846,74.598-5.057C245.836,74.857,215.991,65.637,179.221,61.476z"
				/>
			
				<ellipse transform="matrix(0.1125 -0.9937 0.9937 0.1125 105.0146 257.6566)" style="fill:#263238;" cx="196.74" cy="70.043" rx="6.342" ry="26.904"/>
		</g>
		<g>
			
				<ellipse transform="matrix(0.9925 -0.1221 0.1221 0.9925 -28.5157 21.2012)" style="fill:#FFFFFF;" cx="158.685" cy="243.209" rx="55.737" ry="55.737"/>
			<g>
				<path style="fill:#263238;" d="M187.805,246.505c-2.414,21.328-14.194,37.506-33.795,35.288
					c-19.601-2.219-26.86-20.552-24.446-41.88c2.414-21.328,13.587-37.575,33.188-35.356
					C182.353,206.775,190.219,225.177,187.805,246.505z"/>
				<path style="fill:#FFFFFF;" d="M160.103,275.095c0.589-5.885,0.727-11.237-0.756-16.307c-1.335-5.068-3.98-10.191-5.559-16.083
					c-0.402-1.452-0.686-2.956-0.967-4.449c-0.139-1.518-0.422-3.025-0.373-4.553c-0.101-3.069,0.289-5.971,0.915-8.944
					c0.666-2.943,1.749-5.878,3.45-8.613c1.792-2.652,3.981-5.406,7.497-6.795c-1.803,2.546-2.387,5.254-2.809,7.923
					c-0.376,2.68-0.49,5.355-0.396,8.049c0.122,2.665,0.213,5.435,0.606,8.016c0.328,2.609,0.836,5.185,1.557,7.807
					c1.292,5.19,3.423,10.842,3.49,17.07C166.886,264.44,164.283,270.469,160.103,275.095z"/>
			</g>
		</g>
	</g>
</g>
<g id="Cup_2">
	<g>
		<g>
			<path style="fill:#92E3A9;stroke:#263238;stroke-miterlimit:10;" d="M239.288,191.988l93.636,240.693
				c1.95,7.192,34.099,12.154,68.159,2.919c34.06-9.235,57.133-29.171,55.183-36.363L415.49,144.212L239.288,191.988z"/>
			<polygon style="fill:#FFFFFF;" points="328.663,421.729 437.902,284.384 415.49,144.212 382.33,153.203 276.139,286.715 			"/>
			<polygon style="fill:#263238;" points="419.465,267.877 423.664,258.016 413.789,253.855 415.502,243.277 404.915,241.617 
				404.033,230.937 393.357,231.861 389.955,221.699 379.806,225.138 374.078,216.081 365.048,221.85 357.311,214.435 
				349.935,222.21 340.646,216.867 335.329,226.17 325.035,223.187 322.103,233.494 311.395,233.078 311.028,243.788 
				300.532,245.947 302.729,256.436 293.048,261.032 297.683,270.694 289.385,277.474 296.207,285.737 289.786,294.316 
				298.391,300.705 294.192,310.566 304.067,314.727 302.354,325.305 312.941,326.965 313.823,337.645 324.499,336.721 
				327.901,346.883 338.051,343.444 343.778,352.501 352.808,346.732 360.545,354.147 367.921,346.372 377.21,351.715 
				382.527,342.412 392.821,345.395 395.753,335.088 406.461,335.504 406.828,324.794 417.324,322.634 415.127,312.146 
				424.808,307.55 420.173,297.888 428.471,291.108 421.65,282.845 428.07,274.266 			"/>
			
				<ellipse transform="matrix(0.2834 -0.959 0.959 0.2834 -15.4221 547.9435)" style="fill:#FFFFFF;" cx="358.928" cy="284.291" rx="58.291" ry="58.291"/>
			<g>
				<path style="fill:#263238;" d="M371.9,332.13c-26.379,7.152-53.659-8.489-60.811-34.868
					c-7.152-26.379,8.49-53.659,34.868-60.812c26.379-7.152,53.658,8.49,60.81,34.869C413.92,297.698,398.278,324.978,371.9,332.13z
					"/>
			</g>
			<path style="fill:none;stroke:#263238;stroke-miterlimit:10;" d="M239.288,191.988l93.636,240.693
				c1.95,7.192,34.099,12.154,68.159,2.919c34.06-9.235,57.133-29.171,55.183-36.363L415.49,144.212L239.288,191.988z"/>
			<g>
				<path style="fill:#92E3A9;" d="M390.021,276.421c-0.374-0.464-0.986-0.663-1.561-0.508l-5.634,1.528
					c-0.051-0.21-0.096-0.421-0.153-0.631c-0.282-1.039-0.633-2.041-1.034-3.013l-53.735,14.57c0.144,1.041,0.348,2.084,0.629,3.123
					c2.763,10.189,11.507,17.252,21.8,18.832c-0.383,0.654-0.531,1.289-0.373,1.871c0.693,2.556,6.78,3.129,13.595,1.282
					c6.815-1.848,11.778-5.418,11.085-7.973c-0.158-0.581-0.606-1.055-1.267-1.426c2.16-1.754,4.03-3.787,5.554-6.024
					c0.498-0.095,1.013-0.21,1.542-0.353c3.474-0.942,7.466-3.022,9.94-7.539C394.679,282.362,390.214,276.661,390.021,276.421z
					 M387.777,288.719c-1.651,3.014-4.23,4.674-6.722,5.598c2.023-4.297,2.886-9.084,2.31-13.913l4.817-1.306
					C388.99,280.615,390.265,284.177,387.777,288.719z"/>
				<g>
					<g>
						<path style="fill:#92E3A9;" d="M338.477,283.5c-0.39,0.106-0.822-0.033-1.072-0.38c-0.117-0.163-2.865-4.058-2.437-9.981
							c0.231-3.222,1.313-6.142,2.267-8.717c0.749-2.022,1.456-3.932,1.586-5.582c0.285-3.633-1.61-7.829-1.629-7.871
							c-0.229-0.502-0.009-1.095,0.493-1.325c0.513-0.233,1.096-0.009,1.325,0.492c0.087,0.19,2.131,4.702,1.805,8.861
							c-0.15,1.927-0.905,3.964-1.704,6.121c-0.951,2.57-1.936,5.227-2.147,8.165c-0.373,5.169,2.044,8.637,2.068,8.671
							c0.319,0.45,0.215,1.074-0.233,1.394C338.697,283.42,338.588,283.47,338.477,283.5z"/>
					</g>
					<g>
						<path style="fill:#92E3A9;" d="M352.873,279.597c-0.391,0.106-0.822-0.033-1.073-0.381c-0.117-0.163-2.864-4.057-2.438-9.979
							c0.232-3.222,1.314-6.142,2.268-8.717c0.749-2.022,1.456-3.932,1.586-5.582c0.285-3.634-1.609-7.83-1.628-7.872
							c-0.229-0.502-0.009-1.096,0.493-1.325c0.509-0.232,1.096-0.009,1.325,0.492c0.087,0.19,2.13,4.703,1.804,8.861
							c-0.15,1.927-0.905,3.964-1.704,6.121c-0.951,2.57-1.936,5.227-2.147,8.165c-0.372,5.169,2.043,8.637,2.068,8.671
							c0.319,0.45,0.215,1.074-0.233,1.394C353.093,279.516,352.984,279.567,352.873,279.597z"/>
					</g>
					<g>
						<path style="fill:#92E3A9;" d="M368.041,275.484c-0.39,0.106-0.822-0.033-1.072-0.38c-0.117-0.164-2.865-4.058-2.437-9.981
							c0.231-3.222,1.313-6.141,2.267-8.717c0.749-2.022,1.456-3.932,1.586-5.582c0.285-3.633-1.61-7.829-1.629-7.871
							c-0.229-0.502-0.009-1.096,0.493-1.326c0.509-0.232,1.096-0.009,1.325,0.492c0.087,0.19,2.131,4.702,1.805,8.861
							c-0.15,1.927-0.905,3.964-1.704,6.121c-0.952,2.57-1.936,5.227-2.147,8.165c-0.373,5.169,2.044,8.637,2.068,8.671
							c0.319,0.45,0.215,1.074-0.233,1.394C368.261,275.404,368.152,275.454,368.041,275.484z"/>
					</g>
				</g>
			</g>
		</g>
		<g>
			<g>
				<path style="fill:#263238;" d="M226.733,185.907l2.044,7.539c3.295,12.152,49.958,10.075,104.226-4.639
					c54.267-14.714,95.589-36.494,92.294-48.646l-2.044-7.539L226.733,185.907z"/>
				
					<ellipse transform="matrix(0.9652 -0.2617 0.2617 0.9652 -30.3528 90.599)" style="fill:#8A8A8A;stroke:#263238;stroke-miterlimit:10;" cx="324.993" cy="159.264" rx="101.808" ry="22.798"/>
			</g>
			<g>
				<path style="fill:#263238;" d="M225.365,173.827l2.007,7.403c3.235,11.932,49.055,9.893,102.341-4.555
					c53.286-14.448,93.861-35.834,90.625-47.766l-2.007-7.403L225.365,173.827z"/>
				
					<ellipse transform="matrix(0.9652 -0.2617 0.2617 0.9652 -27.4272 89.3717)" style="fill:#8A8A8A;stroke:#263238;stroke-miterlimit:10;" cx="321.849" cy="147.666" rx="99.967" ry="22.385"/>
			</g>
			<path style="fill:#263238;" d="M227.46,141.603l7.352,27.116c2.786,10.274,43.724,8.115,91.438-4.822
				c47.714-12.937,84.135-31.754,81.349-42.028l-7.352-27.116L227.46,141.603z"/>
			
				<ellipse transform="matrix(0.9652 -0.2617 0.2617 0.9652 -19.9891 86.2518)" style="fill:#8A8A8A;stroke:#263238;stroke-miterlimit:10;" cx="313.853" cy="118.178" rx="89.513" ry="19.275"/>
			<path style="fill:#263238;" d="M385.834,98.661c2.321,8.56-28.024,24.238-67.778,35.017s-73.862,12.578-76.183,4.018
				c-2.321-8.56,28.024-24.238,67.778-35.017C349.404,91.9,383.513,90.101,385.834,98.661z"/>
			<path style="fill:#8A8A8A;stroke:#263238;stroke-miterlimit:10;" d="M310.955,107.488c-35.955,9.749-64.209,23.504-67.564,32.377
				c7.378,5.963,38.71,3.562,74.665-6.187c35.955-9.749,64.209-23.504,67.564-32.377C378.242,95.338,346.91,97.739,310.955,107.488z
				"/>
			<path style="fill:#263238;" d="M356.444,102.249c0.917,3.38-9.966,9.273-24.307,13.161c-14.341,3.888-26.71,4.3-27.626,0.92
				c-0.917-3.38,9.966-9.273,24.307-13.161C343.159,99.281,355.528,98.869,356.444,102.249z"/>
		</g>
	</g>
</g>
</svg>
